<svg xmlns="http://www.w3.org/2000/svg" viewBox="0 0 99.21 99.21">
  <defs>
    <style>
      .cls-1 {
        fill: #fff;
      }
    </style>
  </defs>
  <title>logo</title>
  <g id="sfondo">
    <rect class="cls-1" width="99.21" height="99.21"/>
  </g>
  <g id="sign">
    <g>
      <polygon points="32.68 67.13 32.68 27.54 28.39 27.54 28.39 71.14 39.59 71.14 39.59 67.13 32.68 67.13"/>
      <path d="M59.57,27.54H59V42.64H40.68V27.55H36.19v35.7h4.49V46.6H59V59.85q0,11.94-9.35,11.94a17.32,17.32,0,0,1-6.42-1.19v4a17,17,0,0,0,3.38,1,23.11,23.11,0,0,0,3.57.25q6.33,0,9.79-4.13t3.47-11.86V31.55h3V71.14h4.3V27.54Z"/>
    </g>
  </g>
</svg>
