<svg xmlns="http://www.w3.org/2000/svg" viewBox="0 0 99.21 99.21">
  <defs>
    <style>
      .cls-1 {
        fill: #fff;
      }
    </style>
  </defs>
  <title>logo</title>
  <g id="sfondo">
    <rect class="cls-1" width="99.21" height="99.21"/>
  </g>
  <g id="sign">
    <g>
      <polygon points="32.68 67.13 32.68 27.54 28.39 27.54 28.39 71.14 39.59 71.14 39.59 67.13 32.68 67.13"/>
      <path d="M59.57,27.54H42.74q-3.62,0-5.33,1.53a6.06,6.06,0,0,0-1.72,4.77,6.56,6.56,0,0,0,.17,1.42,6.69,6.69,0,0,0,.39,1.31h4a6.74,6.74,0,0,1-.51-2.68c0-1.6,1-2.34,3-2.34h5.1l.05,31.68h4.5l-.05-31.68H66.48V71.14h4.3V27.54Z"/>
    </g>
  </g>
</svg>
