<svg xmlns="http://www.w3.org/2000/svg" viewBox="0 0 99.21 99.21">
  <defs>
    <style>
      .cls-1 {
        fill: #fff;
      }
    </style>
  </defs>
  <title>logo</title>
  <g id="sfondo">
    <rect class="cls-1" width="99.21" height="99.21"/>
  </g>
  <g id="sign">
    <g>
      <polygon points="32.68 67.13 32.68 27.54 28.39 27.54 28.39 71.14 39.59 71.14 39.59 67.13 32.68 67.13"/>
      <polygon points="59.57 27.54 59.57 27.55 59.27 27.55 46.55 41.76 43.47 45.16 43.47 27.55 38.98 27.55 38.98 63.25 43.47 63.25 43.47 49.4 47.11 46.2 59.78 63.25 65.08 63.25 50.38 43.1 60.89 31.55 66.48 31.55 66.48 71.14 70.78 71.14 70.78 27.54 59.57 27.54"/>
      <rect x="44.18" y="67.03" width="14.84" height="3.54"/>
    </g>
  </g>
</svg>
