<svg xmlns="http://www.w3.org/2000/svg" viewBox="0 0 99.21 99.21">
  <defs>
    <style>
      .cls-1 {
        fill: #fff;
      }
    </style>
  </defs>
  <title>logo</title>
  <g id="sfondo">
    <rect class="cls-1" width="99.21" height="99.21"/>
  </g>
  <g id="sign">
    <g>
      <path d="M59.57,27.54h0V47.69q0,1.62.15,5.22c.1,2.4.16,3.79.19,4.18h-.19L53.48,47.4,41.76,29.29l-1.09-1.74h-5.2v35.7h4.15v-20q0-3.27-.3-7.71l-.12-2h.2L58.51,63.25h5.25V31.55h2.72V71.14h4.3V27.54Z"/>
      <polygon points="32.68 67.13 32.68 27.54 28.39 27.54 28.39 71.14 39.59 71.14 39.59 67.13 32.68 67.13"/>
      <rect x="42.16" y="67.03" width="14.84" height="3.54"/>
    </g>
  </g>
</svg>
