<svg xmlns="http://www.w3.org/2000/svg" viewBox="0 0 99.21 99.21">
  <defs>
    <style>
      .cls-1 {
        fill: #fff;
      }
    </style>
  </defs>
  <title>logo</title>
  <g id="sfondo">
    <rect class="cls-1" width="99.21" height="99.21"/>
  </g>
  <g id="sign">
    <g>
      <polygon points="59.55 27.54 59.55 31.55 66.45 31.55 66.45 71.14 70.75 71.14 70.75 27.54 59.55 27.54"/>
      <path d="M61,45.2q-3.37-2.56-9.87-2.56H45.44V27.56H28.36V71.15H39.57v-4H32.66V31.51H41V63.25H51.69q6.18,0,9.41-2.69c2.16-1.79,3.23-4.37,3.23-7.76S63.21,46.9,61,45.2ZM57.62,57.77q-2.05,1.62-6.4,1.62H45.44V46.55h5.1q4.86,0,7,1.49a5.4,5.4,0,0,1,2.13,4.76A5.94,5.94,0,0,1,57.62,57.77Z"/>
    </g>
  </g>
</svg>
