<svg xmlns="http://www.w3.org/2000/svg" viewBox="0 0 99.21 99.21">
  <defs>
    <style>
      .cls-1 {
        fill: #fff;
      }
    </style>
  </defs>
  <title>logo</title>
  <g id="sfondo">
    <rect class="cls-1" width="99.21" height="99.21"/>
  </g>
  <g id="sign">
    <g>
      <polygon points="32.68 67.13 32.68 27.54 28.39 27.54 28.39 71.14 39.59 71.14 39.59 67.13 32.68 67.13"/>
      <path d="M59.57,27.54H36.19v4H47.34V67.39c0,2.75.56,4.74,1.69,6a6.5,6.5,0,0,0,5.08,1.87,6.52,6.52,0,0,0,3.15-.66V70.78a5,5,0,0,1-2.25.51,2.79,2.79,0,0,1-2.44-1,5.41,5.41,0,0,1-.71-3.11V31.55H66.48V71.14h4.3V27.54Z"/>
    </g>
  </g>
</svg>
