<svg xmlns="http://www.w3.org/2000/svg" viewBox="0 0 99.21 99.21">
  <defs>
    <style>
      .cls-1 {
        fill: #fff;
      }
    </style>
  </defs>
  <title>logo</title>
  <g id="sfondo">
    <rect class="cls-1" width="99.21" height="99.21"/>
  </g>
  <g id="sign">
    <g>
      <polygon points="59.57 27.54 59.57 27.54 36.19 27.54 36.19 31.55 47.29 31.55 47.29 43.29 39.85 43.29 39.85 46.98 47.29 46.98 47.29 63.23 51.79 63.23 51.79 46.98 59.21 46.98 59.21 43.29 51.79 43.29 51.79 31.55 59.57 31.55 59.57 31.55 66.48 31.55 66.48 71.14 70.78 71.14 70.78 27.54 59.57 27.54"/>
      <polygon points="32.68 67.13 32.68 27.54 28.39 27.54 28.39 71.14 39.59 71.14 39.59 67.13 32.68 67.13"/>
    </g>
  </g>
</svg>
