<svg xmlns="http://www.w3.org/2000/svg" viewBox="0 0 99.21 99.21">
  <defs>
    <style>
      .cls-1 {
        fill: #fff;
      }
    </style>
  </defs>
  <title>logo</title>
  <g id="sfondo">
    <rect class="cls-1" width="99.21" height="99.21"/>
  </g>
  <g id="sign">
    <g>
      <polygon points="32.68 67.13 32.68 27.54 28.39 27.54 28.39 71.14 39.59 71.14 39.59 67.13 32.68 67.13"/>
      <path d="M59.57,27.54v4h6.91V60.89a10.42,10.42,0,0,1-3,.4,8.69,8.69,0,0,1-3.69-.75,14.29,14.29,0,0,0,4.43-5.84,19.6,19.6,0,0,0,1.65-8c0-4-.79-7.14-2.38-9.29a7.94,7.94,0,0,0-6.8-3.21A8,8,0,0,0,50,37.39q-2.43,3.2-2.43,9.11a22.82,22.82,0,0,0,1.15,7.32,17,17,0,0,0,3.1,5.76,8.9,8.9,0,0,1-2.25.27q-5.61,0-8.67-3.68T37.87,45.59q0-14.64,11-14.64a13,13,0,0,1,2.47.24,11.09,11.09,0,0,1,1.78.46l1.2-3.8a15.22,15.22,0,0,0-5.4-.86q-7.69,0-11.69,4.8t-4,14q0,8.35,4.29,13.15c2.85,3.2,6.81,4.79,11.85,4.79a18.34,18.34,0,0,0,6-.87,14,14,0,0,0,8,2.44,10,10,0,0,0,3.19-.45v6.29h4.3V27.54Zm-3.29,30.6a14.12,14.12,0,0,1-3-5,18.34,18.34,0,0,1-1.1-6.39,14.11,14.11,0,0,1,1.22-6.5,3.61,3.61,0,0,1,6.76,0,14.51,14.51,0,0,1,1.22,6.6A16.12,16.12,0,0,1,60,53.52,10.59,10.59,0,0,1,56.28,58.14Z"/>
    </g>
  </g>
</svg>
