<svg xmlns="http://www.w3.org/2000/svg" viewBox="0 0 99.21 99.21">
  <defs>
    <style>
      .cls-1 {
        fill: #fff;
      }
    </style>
  </defs>
  <title>logo</title>
  <g id="sfondo">
    <rect class="cls-1" width="99.21" height="99.21"/>
  </g>
  <g id="sign">
    <g>
      <polygon points="32.68 67.13 32.68 27.54 28.39 27.54 28.39 71.14 39.59 71.14 39.59 67.13 32.68 67.13"/>
      <path d="M59.57,27.54H39.25v3.54l10.4,10.16a14,14,0,0,0-6.18,1.52,10.49,10.49,0,0,0-4.21,4,11.56,11.56,0,0,0-1.5,6,10,10,0,0,0,6.32,9.68,18.67,18.67,0,0,0,7.47,1.35,38.71,38.71,0,0,0,6-.42,18.18,18.18,0,0,0,4.9-1.5V57.7a22.12,22.12,0,0,1-5.16,1.76,25,25,0,0,1-5.19.59q-4.71,0-7.18-1.95a6.64,6.64,0,0,1-2.46-5.5,7.14,7.14,0,0,1,2.32-5.69,9.61,9.61,0,0,1,6.54-2h3.88V41.64L45,31.56H66.48V71.14h4.3V27.54Z"/>
    </g>
  </g>
</svg>
