<svg xmlns="http://www.w3.org/2000/svg" viewBox="0 0 99.21 99.21">
  <defs>
    <style>
      .cls-1 {
        fill: #fff;
      }
    </style>
  </defs>
  <title>logo</title>
  <g id="sfondo">
    <rect class="cls-1" width="99.21" height="99.21"/>
  </g>
  <g id="sign">
    <g>
      <polygon points="32.68 67.13 32.68 27.54 28.39 27.54 28.39 71.14 39.59 71.14 39.59 67.13 32.68 67.13"/>
      <path d="M59.57,27.54v.08L51.06,47.35l-.76,2-.2.59h-.19a16.41,16.41,0,0,0-1-2.54L38.65,27.55H33.72L47.47,54.09a11.87,11.87,0,0,1-3.09,4.44,6.73,6.73,0,0,1-4.21,1.23,11.37,11.37,0,0,1-4.72-1V63a14.7,14.7,0,0,0,4.86.73,12.42,12.42,0,0,0,5.17-1,10.39,10.39,0,0,0,3.79-3A31.87,31.87,0,0,0,53,53.09l9.62-21.54h3.9V71.14h4.3V27.54Z"/>
      <rect x="41.61" y="21.16" width="14.84" height="3.54"/>
    </g>
  </g>
</svg>
