<svg xmlns="http://www.w3.org/2000/svg" viewBox="0 0 99.21 99.21">
  <defs>
    <style>
      .cls-1 {
        fill: #fff;
      }
    </style>
  </defs>
  <title>logo</title>
  <g id="sfondo">
    <rect class="cls-1" width="99.21" height="99.21"/>
  </g>
  <g id="sign">
    <path d="M32.68,27.54V67.13h6.91v4H28.38V27.54Z"/>
    <path d="M59.57,27.54h0V46.16c0,4.15.12,7.48.34,10h-.19l-19-28.59h-5.2v35.7h4.15V43.89c0-2.71-.14-6.13-.42-10.28h.2L59.56,63.25a6,6,0,0,1-1.38,4.11,5,5,0,0,1-3.82,1.43,13.89,13.89,0,0,1-3.81-.49v3.78a9.18,9.18,0,0,0,3.81.66q4.55,0,7-2.5T63.76,63V31.55h2.72V71.14h4.3V27.54Z"/>
  </g>
</svg>
