<svg xmlns="http://www.w3.org/2000/svg" viewBox="0 0 99.21 99.21">
  <defs>
    <style>
      .cls-1 {
        fill: #fff;
      }
    </style>
  </defs>
  <title>black</title>
  <g id="sfondo">
    <rect width="99.21" height="99.21"/>
  </g>
  <g id="sign">
    <path class="cls-1" d="M32.68,27.54V67.13h6.91v4H28.38V27.54Z"/>
    <path class="cls-1" d="M59.57,27.54H38.19v35.7h4.49V47.83a33.2,33.2,0,0,1,4.49-.29q5.94,0,9.07,3.1t3.14,8.93q0,12.17-9.16,12.16a17.09,17.09,0,0,1-6.34-1.19v4a16,16,0,0,0,3.27.94,22.75,22.75,0,0,0,3.64.26,12,12,0,0,0,9.77-4.24q3.52-4.23,3.53-11.93t-4.2-11.81q-4.2-4.18-12-4.18a48.65,48.65,0,0,0-5.25.25V31.55h23.8V71.14h4.3V27.54Z"/>
  </g>
</svg>
