<svg xmlns="http://www.w3.org/2000/svg" viewBox="0 0 99.21 99.21">
  <defs>
    <style>
      .cls-1 {
        fill: #fff;
      }
    </style>
  </defs>
  <title>black</title>
  <g id="sfondo">
    <rect width="99.21" height="99.21"/>
  </g>
  <g id="sign">
    <path class="cls-1" d="M32.68,27.54V67.13h6.91v4H28.38V27.54Z"/>
    <path class="cls-1" d="M59.57,27.54h-.46l-7,18.56A56.35,56.35,0,0,0,49.61,54a60,60,0,0,0-2.72-8.32L40.07,27.55H35.36L47.15,57.9q-3.34,6.81-3.35,10.69a7.24,7.24,0,0,0,1.57,4.78,5.2,5.2,0,0,0,4.24,1.89A5.26,5.26,0,0,0,53.8,73.4a7.07,7.07,0,0,0,1.6-4.81,16.81,16.81,0,0,0-.84-4.67,37.63,37.63,0,0,0-2.5-6.07l10.23-26.3h4.19V71.14h4.3V27.54Zm-10,43.81a1.42,1.42,0,0,1-1.23-.71,4.07,4.07,0,0,1-.48-2.24,13.75,13.75,0,0,1,.38-2.81A15.85,15.85,0,0,1,49.61,62a14.15,14.15,0,0,1,1.26,3.38,13.52,13.52,0,0,1,.43,3.12C51.3,70.4,50.74,71.35,49.61,71.35Z"/>
  </g>
</svg>
