<svg xmlns="http://www.w3.org/2000/svg" viewBox="0 0 99.21 99.21">
  <defs>
    <style>
      .cls-1 {
        fill: #fff;
      }
    </style>
  </defs>
  <title>black</title>
  <g id="sfondo">
    <rect width="99.21" height="99.21"/>
  </g>
  <g id="sign">
    <path class="cls-1" d="M66.48,71.14V31.55H59.57v-4H70.78v43.6Z"/>
    <path class="cls-1" d="M61.66,43.7q-2.7-2.36-7.79-2.35H44.33V31.51H55.17v-4H28.38v43.6H39.59v-4H32.68V31.51h7.18V63.25h4.47v-18h9.2a7.39,7.39,0,0,1,4.85,1.33c1,.89,1.55,2.34,1.55,4.36v3.2a6.21,6.21,0,0,1-1.22,4.12,4.49,4.49,0,0,1-3.64,1.45,10.86,10.86,0,0,1-3.59-.52v3.91a9.48,9.48,0,0,0,3.79.58,8.67,8.67,0,0,0,6.7-2.6,10.25,10.25,0,0,0,2.4-7.23V50.4A8.4,8.4,0,0,0,61.66,43.7Z"/>
  </g>
</svg>
