<svg xmlns="http://www.w3.org/2000/svg" viewBox="0 0 99.21 99.21">
  <defs>
    <style>
      .cls-1 {
        fill: #fff;
      }
    </style>
  </defs>
  <title>black</title>
  <g id="sfondo">
    <rect width="99.21" height="99.21"/>
  </g>
  <g id="sign">
    <path class="cls-1" d="M66.48,71.14V31.55H59.57v-4H70.78v43.6Z"/>
    <g>
      <polygon class="cls-1" points="32.68 67.13 32.68 27.54 28.39 27.54 28.39 71.14 39.59 71.14 39.59 67.13 32.68 67.13"/>
      <path class="cls-1" d="M61,45.19q-3.39-2.55-9.88-2.55H45.46V27.55H32.69v4H41V63.25H51.71q6.18,0,9.42-2.69t3.23-7.76Q64.36,47.75,61,45.19ZM57.65,57.77q-2.05,1.62-6.4,1.62H45.46V46.55h5.11c3.23,0,5.57.49,7,1.49A5.4,5.4,0,0,1,59.7,52.8,6,6,0,0,1,57.65,57.77Z"/>
    </g>
  </g>
</svg>
