<svg xmlns="http://www.w3.org/2000/svg" viewBox="0 0 99.21 99.21">
  <defs>
    <style>
      .cls-1 {
        fill: #fff;
      }
    </style>
  </defs>
  <title>black</title>
  <g id="sfondo">
    <rect width="99.21" height="99.21"/>
  </g>
  <g id="sign">
    <path class="cls-1" d="M32.68,27.54V67.13h6.91v4H28.38V27.54Z"/>
    <g>
      <path class="cls-1" d="M59.57,27.54H55.84v35.5a6.54,6.54,0,0,1-1.22,4.26A4.48,4.48,0,0,1,51,68.79a13.13,13.13,0,0,1-3.62-.49v3.78a8.87,8.87,0,0,0,3.71.66q4.5,0,6.9-2.61c1.6-1.74,2.41-4.22,2.41-7.44V31.55h6.12V71.14h4.3V27.54Z"/>
      <polygon class="cls-1" points="49.2 60.66 45 59.71 45 31.14 49.2 30.14 49.2 27.55 36.31 27.55 36.31 30.14 40.51 31.14 40.51 59.71 36.31 60.66 36.31 63.25 49.2 63.25 49.2 60.66"/>
    </g>
  </g>
</svg>
