<svg xmlns="http://www.w3.org/2000/svg" viewBox="0 0 99.21 99.21">
  <defs>
    <style>
      .cls-1 {
        fill: #fff;
      }
    </style>
  </defs>
  <title>black</title>
  <g id="sfondo">
    <rect width="99.21" height="99.21"/>
  </g>
  <g id="sign">
    <path class="cls-1" d="M32.68,27.54V67.13h6.91v4H28.38V27.54Z"/>
    <path class="cls-1" d="M59.57,27.54H57.71V44.84a44.64,44.64,0,0,1-6.14,1.68,26.21,26.21,0,0,1-4.48.37c-2.28,0-3.93-.48-4.93-1.43a5.65,5.65,0,0,1-1.52-4.31V27.55H36.15V41.79a8.4,8.4,0,0,0,2.71,6.7c1.81,1.57,4.4,2.35,7.79,2.35a25.78,25.78,0,0,0,5-.47,44.85,44.85,0,0,0,6.08-1.77V63.25H62.2V31.55h4.28V71.14h4.3V27.54Z"/>
  </g>
</svg>
