<svg xmlns="http://www.w3.org/2000/svg" viewBox="0 0 99.21 99.21">
  <defs>
    <style>
      .cls-1 {
        fill: #fff;
      }
    </style>
  </defs>
  <title>black</title>
  <g id="sfondo">
    <rect width="99.21" height="99.21"/>
  </g>
  <g id="sign">
    <path class="cls-1" d="M32.68,27.54V67.13h6.91v4H28.38V27.54Z"/>
    <path class="cls-1" d="M59.57,27.54H40.65L39.31,44.39l2.2,1.39a27.45,27.45,0,0,1,6.1-.73q8.94,0,8.94,7.23A7.18,7.18,0,0,1,54.25,58a9.58,9.58,0,0,1-6.49,2,20.56,20.56,0,0,1-5-.63,16.51,16.51,0,0,1-4.34-1.71V61.8c2.18,1.28,5.26,1.93,9.25,1.93q6.27,0,9.81-3.17a11.07,11.07,0,0,0,3.54-8.72,9.68,9.68,0,0,0-3.21-7.69c-2.14-1.88-5.07-2.81-8.8-2.81a28.26,28.26,0,0,0-5.49.56l.85-10.35H66.48V71.14h4.3V27.54Z"/>
  </g>
</svg>
